<svg width="440" height="312" viewBox="0 0 440 312" xmlns="http://www.w3.org/2000/svg">
<rect x="2" y="2" stroke-width="4" rx="6" width="436" height="308" stroke="#0d419d" fill="#090c10" />
<g font-weight="600" font-family="Verdana,Geneva,DejaVu Sans,sans-serif">
<text x="15" y="37" font-size="18px" fill="#f0f6fc">Vincent A. Cicirello's GitHub Activity</text>
<g transform="translate(0, 60)" font-size="14px" fill="#c9d1d9">
<g transform="translate(15, 0)">
<text x="0" y="12.5">Language Distribution in Public Repositories:</text>
</g>
<g transform="translate(235, 21)"><circle cx="92.0" cy="92.0" r="92.0" fill="#ffffff" /></g>
<g transform="translate(236, 22)"><svg viewBox="0 0 182.0 182.0" width="182.0" height="182.0">
<path fill-rule="evenodd" fill="#b07219" d="M 0.0,91.00000000000001 A 91.0 91.0 0 1 1 145.2447186811338 164.06511134053414 L 91.0,91.0 Z"/>
<path fill-rule="evenodd" fill="#e34c26" d="M 145.2447186811338,164.06511134053414 A 91.0 91.0 0 0 1 15.550070679030796 141.87541808634845 L 91.0,91.0 Z"/>
<path fill-rule="evenodd" fill="#3572A5" d="M 15.550070679030796,141.87541808634845 A 91.0 91.0 0 0 1 3.1282357703681214 114.65487372978318 L 91.0,91.0 Z"/>
<path fill-rule="evenodd" fill="#3D6117" d="M 3.1282357703681214,114.65487372978318 A 91.0 91.0 0 0 1 0.016322864208675014 92.7235123585528 L 91.0,91.0 Z"/>
<path fill-rule="evenodd" fill="#384d54" d="M 0.016322864208675014,92.7235123585528 A 91.0 91.0 0 0 1 0.006980419292460738 92.12711471686517 L 91.0,91.0 Z"/>
<path fill-rule="evenodd" fill="#427819" d="M 0.006980419292460738,92.12711471686517 A 91.0 91.0 0 0 1 0.00225626244223065 91.64080782904486 L 91.0,91.0 Z"/>
<path fill-rule="evenodd" fill="#89e051" d="M 0.00225626244223065,91.64080782904486 A 91.0 91.0 0 0 1 0.0010156763856628004 91.4299442645179 L 91.0,91.0 Z"/>
<path fill-rule="evenodd" fill="#e10098" d="M 0.0010156763856628004,91.4299442645179 A 91.0 91.0 0 0 1 0.00027007488566255233 91.2217060131125 L 91.0,91.0 Z"/>
<path fill-rule="evenodd" fill="#563d7c" d="M 0.00027007488566255233,91.2217060131125 A 91.0 91.0 0 0 1 6.086694753548727e-06 91.03328330526433 L 91.0,91.0 Z"/>
<path fill-rule="evenodd" fill="#959da5" d="M 6.086694753548727e-06,91.03328330526433 A 91.0 91.0 0 0 1 0.0 91.00000000000003 L 91.0,91.0 Z"/>
</svg></g>
<g transform="translate(15, 21)">
<rect x="0.5" y="0.5" rx="2" width="15" height="15" fill="#b07219" stroke-width="1" stroke="#ffffff" />
<text x="25" y="12.5">Java 64.84%</text>
</g>
<g transform="translate(15, 42)">
<rect x="0.5" y="0.5" rx="2" width="15" height="15" fill="#e34c26" stroke-width="1" stroke="#ffffff" />
<text x="25" y="12.5">HTML 25.72%</text>
</g>
<g transform="translate(15, 63)">
<rect x="0.5" y="0.5" rx="2" width="15" height="15" fill="#3572A5" stroke-width="1" stroke="#ffffff" />
<text x="25" y="12.5">Python 5.26%</text>
</g>
<g transform="translate(15, 84)">
<rect x="0.5" y="0.5" rx="2" width="15" height="15" fill="#3D6117" stroke-width="1" stroke="#ffffff" />
<text x="25" y="12.5">TeX 3.88%</text>
</g>
<g transform="translate(15, 105)">
<rect x="0.5" y="0.5" rx="2" width="15" height="15" fill="#384d54" stroke-width="1" stroke="#ffffff" />
<text x="25" y="12.5">Dockerfile 0.10%</text>
</g>
<g transform="translate(15, 126)">
<rect x="0.5" y="0.5" rx="2" width="15" height="15" fill="#427819" stroke-width="1" stroke="#ffffff" />
<text x="25" y="12.5">Makefile 0.09%</text>
</g>
<g transform="translate(15, 147)">
<rect x="0.5" y="0.5" rx="2" width="15" height="15" fill="#89e051" stroke-width="1" stroke="#ffffff" />
<text x="25" y="12.5">Shell 0.04%</text>
</g>
<g transform="translate(15, 168)">
<rect x="0.5" y="0.5" rx="2" width="15" height="15" fill="#e10098" stroke-width="1" stroke="#ffffff" />
<text x="25" y="12.5">GraphQL 0.04%</text>
</g>
<g transform="translate(15, 189)">
<rect x="0.5" y="0.5" rx="2" width="15" height="15" fill="#563d7c" stroke-width="1" stroke="#ffffff" />
<text x="25" y="12.5">CSS 0.03%</text>
</g>
<g transform="translate(15, 210)">
<rect x="0.5" y="0.5" rx="2" width="15" height="15" fill="#959da5" stroke-width="1" stroke="#ffffff" />
<text x="25" y="12.5">Other 0.01%</text>
</g>
</g>
</g>
</svg>
