<svg width="440" height="291.0" viewBox="0 0 440 291.0" xmlns="http://www.w3.org/2000/svg"><rect x="2" y="2" stroke-width="4" rx="6" width="436" height="287.0" stroke="#0d419d" fill="#090c10"/><g font-weight="600" font-family="Verdana,Geneva,DejaVu Sans,sans-serif"><text x="15" y="37" font-size="18px" fill="#f0f6fc">Vincent A. Cicirello's GitHub Activity</text><g transform="translate(0, 60)" font-size="14px" fill="#c9d1d9"><g transform="translate(15, 0)"><text x="0" y="12.5">Language Distribution in Public Repositories:</text></g><g transform="translate(235, 21)"><circle cx="92.0" cy="92.0" r="92.0" fill="#ffffff"/></g><g transform="translate(236, 22)"><svg viewBox="0 0 182.0 182.0" width="182.0" height="182.0"><path fill-rule="evenodd" fill="#b07219" d="M 0.0,91.00000000000001 A 91.0 91.0 0 1 1 23.819475267531914 152.38222134030542 L 91.0,91.0 Z"/><path fill-rule="evenodd" fill="#3572A5" d="M 23.819475267531914,152.38222134030542 A 91.0 91.0 0 0 1 2.3883188789609164 111.71159020701415 L 91.0,91.0 Z"/><path fill-rule="evenodd" fill="#e34c26" d="M 2.3883188789609164,111.71159020701415 A 91.0 91.0 0 0 1 0.33614326432162045 98.81441500129002 L 91.0,91.0 Z"/><path fill-rule="evenodd" fill="#959da5" d="M 0.33614326432162045,98.81441500129002 A 91.0 91.0 0 0 1 0.0 91.00000000000003 L 91.0,91.0 Z"/></svg></g><g transform="translate(15, 21)"><rect x="0.5" y="0.5" rx="2" width="15" height="15" fill="#b07219" stroke-width="1" stroke="#ffffff"/><text x="25" y="12.5">Java 88.22%</text></g><g transform="translate(15, 42)"><rect x="0.5" y="0.5" rx="2" width="15" height="15" fill="#3572A5" stroke-width="1" stroke="#ffffff"/><text x="25" y="12.5">Python 8.13%</text></g><g transform="translate(15, 63)"><rect x="0.5" y="0.5" rx="2" width="15" height="15" fill="#e34c26" stroke-width="1" stroke="#ffffff"/><text x="25" y="12.5">HTML 2.29%</text></g><g transform="translate(15, 84)"><rect x="0.5" y="0.5" rx="2" width="15" height="15" fill="#959da5" stroke-width="1" stroke="#ffffff"/><text x="25" y="12.5">Other 1.37%</text></g></g></g></svg>